Results
version=1
nRows=26
nColumns=24
inDegrees=yes

Units are S.I. units (second, meters, Newtons, ...)
Angles are in degrees.

endheader
time	pelvis_tilt	pelvis_list	pelvis_rotation	pelvis_tx	pelvis_ty	pelvis_tz	hip_flexion_r	hip_adduction_r	hip_rotation_r	knee_angle_r	ankle_angle_r	subtalar_angle_r	mtp_angle_r	hip_flexion_l	hip_adduction_l	hip_rotation_l	knee_angle_l	ankle_angle_l	subtalar_angle_l	mtp_angle_l	lumbar_extension	lumbar_bending	lumbar_rotation
      0.04642736	     -2.40312061	     -2.51799516	      3.94023390	      0.00018130	      0.81350999	     -0.00229817	     21.05462701	     15.11523149	     16.34231834	    -64.97735059	      5.16967909	      4.23860235	     90.86510569	     56.14871588	     -2.71624205	     13.81535116	    -53.11160513	      1.87023483	      3.67727430	     40.22651535	    -17.80450060	      2.87578308	     -3.86797174
      0.04682070	     -2.39029730	     -2.50960233	      3.95208025	      0.00018787	      0.81337319	     -0.00232795	     21.03753341	     15.08440857	     16.30882168	    -64.93826103	      4.96581995	      4.31171101	     91.86158680	     56.11914159	     -2.70044710	     13.82489950	    -53.08026120	      1.83263596	      3.70284281	     40.58564319	    -17.81833655	      2.87175109	     -3.87937505
      0.04721405	     -2.37748509	     -2.50116768	      3.96395404	      0.00019452	      0.81323490	     -0.00235785	     21.02036618	     15.05342624	     16.27506247	    -64.89897057	      4.76363464	      4.38437537	     92.86363888	     56.08951020	     -2.68460586	     13.83438746	    -53.04880122	      1.79488140	      3.72757683	     40.94572875	    -17.83214426	      2.86769501	     -3.89080721
      0.04751645	     -2.36764289	     -2.49465544	      3.97310059	      0.00019970	      0.81312758	     -0.00238092	     21.00711853	     15.02950074	     16.24893045	    -64.86863076	      4.60933694	      4.43992898	     93.63775842	     56.06669191	     -2.67239704	     13.84164064	    -53.02453719	      1.76574632	      3.74603126	     41.22319111	    -17.84274014	      2.86456087	     -3.89961505
      0.04781885	     -2.35780752	     -2.48812055	      3.98226208	      0.00020492	      0.81301938	     -0.00240405	     20.99382805	     15.00548570	     16.22264461	    -64.83817685	      4.45603102	      4.49520678	     94.41510717	     56.04384158	     -2.66016407	     13.84885843	    -53.00020651	      1.73651338	      3.76400444	     41.50118828	    -17.85331900	      2.86141424	     -3.90843811
      0.04819229	     -2.34567121	     -2.48001970	      3.99359591	      0.00021144	      0.81288456	     -0.00243271	     20.97735671	     14.97570691	     16.18997148	    -64.80041443	      4.26808140	      4.56308282	     95.37947462	     56.01557980	     -2.64502504	     13.85772288	    -52.97006902	      1.70027437	      3.78554307	     41.84520947	    -17.86635944	      2.85751144	     -3.91935431
      0.04850627	     -2.33547568	     -2.47318241	      4.00314196	      0.00021697	      0.81277016	     -0.00245688	     20.96345829	     14.95056590	     16.16231908	    -64.76853581	      4.11123352	      4.61981422	     96.19400113	     55.99178150	     -2.63226942	     13.86513377	    -52.94465311	      1.66968409	      3.80309657	     42.13504665	    -17.87730317	      2.85421544	     -3.92854953
      0.04882024	     -2.32528780	     -2.46632033	      4.01270345	      0.00022256	      0.81265482	     -0.00248112	     20.94951463	     14.92532918	     16.13449947	    -64.73654181	      3.95546025	      4.67623427	     97.01187323	     55.96794981	     -2.61948853	     13.87250584	    -52.91916691	      1.63897976	      3.82014797	     42.42541071	    -17.88822843	      2.85090527	     -3.93776074
      0.04911215	     -2.31582308	     -2.45991879	      4.02160624	      0.00022781	      0.81254674	     -0.00250372	     20.93651090	     14.90178184	     16.10848579	    -64.70669563	      3.81160290	      4.72840508	     97.77520221	     55.94576407	     -2.60758424	     13.87932478	    -52.89540996	      1.61032992	      3.83555553	     42.69582013	    -17.89836898	      2.84781535	     -3.94633829
      0.04946869	     -2.30427167	     -2.45207276	      4.03249724	      0.00023427	      0.81241362	     -0.00253140	     20.92057523	     14.87291275	     16.07651703	    -64.67011020	      3.63715000	      4.79175380	     98.71136208	     55.91862793	     -2.59301761	     13.88760856	    -52.86631168	      1.57519798	      3.85380163	     43.02669082	    -17.91073310	      2.84402633	     -3.95683207
      0.04982524	     -2.29273050	     -2.44419517	      4.04340695	      0.00024081	      0.81227927	     -0.00255916	     20.90458238	     14.84392291	     16.04433216	    -64.63338559	      3.46408761	      4.85468647	     99.65160801	     55.89145045	     -2.57842043	     13.89584177	    -52.83712500	      1.53991144	      3.87142369	     43.35817562	    -17.92307314	      2.84021898	     -3.96734530
      0.05011097	     -2.28348914	     -2.43785975	      4.05216290	      0.00024609	      0.81217072	     -0.00258148	     20.89172507	     14.82060491	     16.01838401	    -64.60385721	      3.32640342	      4.90481588	    100.40798416	     55.86964163	     -2.56670122	     13.90240314	    -52.81367222	      1.51152059	      3.88510147	     43.62424705	    -17.93294470	      2.83715477	     -3.97578400
      0.05048859	     -2.27128613	     -2.42945878	      4.06375141	      0.00025314	      0.81202606	     -0.00261105	     20.87467733	     14.78967546	     15.98388047	    -64.56470145	      3.14580834	      4.97064760	    101.41145211	     55.84078036	     -2.55118760	     13.91102544	    -52.78259230	      1.47384420	      3.90258272	     43.97644812	    -17.94596681	      2.83308956	     -3.98695313
      0.05086621	     -2.25909506	     -2.42102262	      4.07535955	      0.00026027	      0.81188002	     -0.00264071	     20.85756682	     14.75861328	     15.94913397	    -64.52540113	      2.96677571	      5.03599966	    102.41916489	     55.81187454	     -2.53564182	     13.91959040	    -52.75141572	      1.43598841	      3.91939352	     44.32925773	    -17.95896159	      2.82900342	     -3.99814282
      0.05117063	     -2.24927585	     -2.41419607	      4.08473155	      0.00026607	      0.81176129	     -0.00266469	     20.84372759	     14.73347607	     15.92094560	    -64.49361634	      2.82358362	      5.08833234	    103.23453982	     55.78853970	     -2.52308647	     13.92645325	    -52.72621255	      1.40533880	      3.93246537	     44.61410239	    -17.96941752	      2.82569393	     -4.00717824
      0.05160499	     -2.23527975	     -2.40442136	      4.09812274	      0.00027443	      0.81159033	     -0.00269900	     20.82391244	     14.69747170	     15.88045781	    -64.44811165	      2.62102960	      5.16245036	    104.40237651	     55.75519858	     -2.50514370	     13.93618172	    -52.69014762	      1.36140533	      3.95039087	     45.02113896	    -17.98430456	      2.82095263	     -4.02008886
      0.05203934	     -2.22130009	     -2.39460070	      4.11153769	      0.00028288	      0.81141756	     -0.00273343	     20.80401625	     14.66129635	     15.83964871	    -64.40243240	      2.42053923	      5.23592050	    105.57523845	     55.72180111	     -2.48716194	     13.94583358	    -52.65395851	      1.31723039	      3.96747502	     45.42886142	    -17.99915492	      2.81618337	     -4.03302460
      0.05227961	     -2.21357409	     -2.38914800	      4.11896856	      0.00028760	      0.81132120	     -0.00275252	     20.79297570	     14.64121141	     15.81693575	    -64.37709140	      2.31051938	      5.27628262	    106.22609819	     55.70330253	     -2.47719805	     13.95113952	    -52.63388670	      1.29268990	      3.97657032	     45.65467927	    -18.00735394	      2.81353257	     -4.04019115
      0.05257085	     -2.20421633	     -2.38252257	      4.12798385	      0.00029336	      0.81120366	     -0.00277571	     20.77956071	     14.61680177	     15.78927606	    -64.34630753	      2.17800480	      5.32493612	    107.01690409	     55.68085869	     -2.46510861	     13.95754010	    -52.60950833	      1.26284594	      3.98726390	     45.92864663	    -18.01727663	      2.81031036	     -4.04888585
      0.05286209	     -2.19486639	     -2.37587991	      4.13700779	      0.00029917	      0.81108529	     -0.00279895	     20.76611026	     14.59232275	     15.76147548	    -64.31545126	      2.04641108	      5.37329253	    107.80970248	     55.65839173	     -2.45300679	     13.96390694	    -52.58507678	      1.23289476	      3.99760047	     46.20287491	    -18.02718226	      2.80707844	     -4.05758886
      0.05315333	     -2.18552432	     -2.36921986	      4.14604019	      0.00030502	      0.81096610	     -0.00282223	     20.75262457	     14.56777449	     15.73353390	    -64.28452453	      1.91573640	      5.42135107	    108.60440877	     55.63590186	     -2.44089274	     13.97023987	    -52.56059235	      1.20283646	      4.00758559	     46.47734994	    -18.03707079	      2.80383657	     -4.06630009
      0.05350497	     -2.17425525	     -2.36115589	      4.15695670	      0.00031214	      0.81082110	     -0.00285040	     20.73629521	     14.53804407	     15.69960971	    -64.24709200	      1.75917935	      5.47897888	    109.56636351	     55.60871741	     -2.42625103	     13.97784119	    -52.53095992	      1.16640170	      4.01918208	     46.80906266	    -18.04898739	      2.79990945	     -4.07682834
      0.05379447	     -2.16498651	     -2.35449874	      4.16595241	      0.00031806	      0.81070083	     -0.00287364	     20.72281366	     14.51349430	     15.67152735	    -64.21620191	      1.63128875	      5.52609413	    110.36019932	     55.58631287	     -2.41418517	     13.98406209	    -52.50650756	      1.13628977	      4.02835882	     47.08239096	    -18.05877914	      2.79666592	     -4.08550398
      0.05408397	     -2.15572578	     -2.34782406	      4.17495584	      0.00032401	      0.81057974	     -0.00289692	     20.70929802	     14.48887681	     15.64330548	    -64.18524823	      1.50429821	      5.57291261	    111.15563826	     55.56388633	     -2.40210790	     13.99024904	    -52.48200404	      1.10607310	      4.03720637	     47.35591835	    -18.06855386	      2.79341187	     -4.09418729
      0.05435871	     -2.14694479	     -2.34147365	      4.18350699	      0.00032970	      0.81046407	     -0.00291906	     20.69644030	     14.46545268	     15.61639397	    -64.15581587	      1.38461293	      5.61706830	    111.91191291	     55.54258333	     -2.39063641	     13.99608905	    -52.45870314	      1.07730106	      4.04530367	     47.61566872	    -18.07781431	      2.79031405	     -4.10243463
      0.05467970	     -2.13669477	     -2.33403596	      4.19350540	      0.00033640	      0.81032800	     -0.00294497	     20.68137950	     14.43801185	     15.58479451	    -64.12135942	      1.24579412	      5.66831667	    112.79713580	     55.51766976	     -2.37722354	     14.00287397	    -52.43142233	      1.04356760	      4.05440365	     47.91934808	    -18.08861414	      2.78668423	     -4.11207752
